<svg width="29" height="25" viewBox="0 0 29 25" fill="none" xmlns="http://www.w3.org/2000/svg">
<path d="M16.4537 0.488949C15.9913 0.0485151 15.2595 0.0663111 14.819 0.528698C14.3786 0.991084 14.3964 1.72296 14.8588 2.1634L24.4964 11.3434H1.78125C1.14267 11.3434 0.625 11.8611 0.625 12.4997C0.625 13.1383 1.14267 13.6559 1.78125 13.6559H24.4965L14.8588 22.8361C14.3964 23.2765 14.3786 24.0084 14.819 24.4708C15.2595 24.9332 15.9913 24.951 16.4537 24.5105L27.8912 13.616C28.1517 13.368 28.3058 13.0516 28.3535 12.7227C28.3676 12.6505 28.375 12.576 28.375 12.4997C28.375 12.4233 28.3676 12.3486 28.3534 12.2763C28.3056 11.9476 28.1515 11.6314 27.8912 11.3835L16.4537 0.488949Z" fill="#FECB2F"/>
</svg>
