<svg width="129" height="23" viewBox="0 0 129 23" fill="none" xmlns="http://www.w3.org/2000/svg">
<path d="M17.6022 0L15.746 4.99262H7.25424V9.64387H14.2311L12.2682 14.6578H7.25424V22.9362H0V0H17.6022Z" fill="#326295"/>
<path d="M19.8215 0V22.9362H26.9691V0H19.8215Z" fill="#326295"/>
<path d="M31.8977 0V22.9362H39.1519V14.6578H44.1659L46.1288 9.64387H39.1519V4.99262H47.6437L49.5212 0H31.8977Z" fill="#326295"/>
<path d="M60.6582 15.4469L57.7992 5.8884L55.0255 15.4469H60.6582ZM69.9394 22.9359H62.7705L61.8317 19.8422H53.8093L52.8706 22.9359H46.0004L54.2147 0.0209961H61.6397L69.9394 22.9359Z" fill="#326295"/>
<path d="M70.7076 12.0548L74.5908 22.9148C77.7272 22.2321 79.6901 19.1384 79.0073 16.002C78.4313 13.3776 76.127 11.5001 73.4387 11.4574C72.4999 11.4574 71.5611 11.6494 70.7076 12.0548Z" fill="#FFCC00"/>
<path d="M91.8094 12.6092C91.084 12.2678 90.3159 12.1185 89.5264 12.1398C87.4569 12.1398 86.1554 13.7827 86.1554 16.1937C86.1554 18.6046 87.3075 20.3755 89.5905 20.3755C90.4652 20.3328 91.34 20.1408 92.1508 19.7781L92.3001 22.5304C91.212 22.8505 90.1025 22.9785 88.9717 22.9572C84.7685 22.9572 82.6562 20.0981 82.6562 16.1937C82.6562 12.4812 84.8539 9.55816 88.8437 9.55816C89.9318 9.53682 91.02 9.68617 92.0654 9.98488L91.8094 12.6092Z" fill="#326295"/>
<path d="M100.408 9.53694C103.928 9.36625 106.936 12.0759 107.107 15.5964C107.129 15.8311 107.107 16.0658 107.107 16.3005C107.107 19.9916 104.099 23 100.408 23C96.7165 23 93.7082 20.0129 93.7082 16.3005C93.4948 12.78 96.1831 9.7503 99.7036 9.53694C99.9596 9.53694 100.173 9.53694 100.408 9.53694ZM100.408 20.333C102.968 20.333 103.651 18.05 103.651 15.9164C103.651 13.7828 102.605 12.1186 100.408 12.1186C98.2101 12.1186 97.2073 14.0175 97.2073 15.9164C97.2073 18.0287 97.8687 20.333 100.408 20.333Z" fill="#326295"/>
<path d="M109.283 10.1348H112.398V11.927C113.23 10.6255 114.66 9.83611 116.196 9.83611C117.818 9.68676 119.354 10.6255 119.972 12.1191C120.762 10.6682 122.319 9.7721 123.984 9.83611C127.141 9.83611 128.037 11.991 128.037 14.8501V22.9364H124.709V15.2981C124.709 14.146 124.709 12.4178 122.789 12.4178C120.57 12.4178 120.292 15.0634 120.292 16.7063V22.9151H116.964V15.2768C116.964 14.1246 116.964 12.3964 115.044 12.3964C112.825 12.3964 112.548 15.0421 112.548 16.685V22.8937H109.219L109.283 10.1348Z" fill="#326295"/>
</svg>
